<?xml version="1.0" encoding="UTF-8"?>
<svg width="19px" height="19px" viewBox="0 0 19 19" version="1.1" xmlns="http://www.w3.org/2000/svg" xmlns:xlink="http://www.w3.org/1999/xlink">
    <!-- Generator: Sketch 63.1 (92452) - https://sketch.com -->
    <title>Icon</title>
    <desc>Created with Sketch.</desc>
    <defs>
        <path d="M13.8571582,11.1428418 C13.8571582,8.38614806 11.6138519,6.14284182 8.85714626,6.14284182 C6.10045251,6.14284182 3.85714626,8.38614806 3.85714626,11.1428418 C3.85714626,13.8995475 6.10045251,16.1428537 8.85714626,16.1428537 C11.6138519,16.1428537 13.8571582,13.8995475 13.8571582,11.1428418 Z M19.5714507,20.4285731 C19.5714507,21.2098241 18.9241285,21.8571463 18.1428776,21.8571463 C17.7634128,21.8571463 17.3951088,21.7008961 17.1384121,21.4330386 L13.3102825,17.6160698 C12.0044774,18.5200887 10.4419755,19 8.85715222,19 C4.51562919,19 1,15.4843708 1,11.1428478 C1,6.80132474 4.51562919,3.28569555 8.85715222,3.28569555 C13.1986753,3.28569555 16.7143044,6.80132474 16.7143044,11.1428478 C16.7143044,12.7276711 16.2343932,14.290173 15.3303742,15.5959781 L19.1585038,19.4241076 C19.4152005,19.6808044 19.5714507,20.0491084 19.5714507,20.4285731 Z" id="path-1"></path>
    </defs>
    <g id="Symbols" stroke="none" stroke-width="1" fill="none" fill-rule="evenodd">
        <g id="Icon/Required-Copy" transform="translate(-1.000000, -3.000000)">
            <g id="Icon">
                <polygon id="Bounding-Box" points="0 0 24 0 24 24 0 24"></polygon>
                <mask id="mask-2" fill="white">
                    <use xlink:href="#path-1"></use>
                </mask>
                <use id="mag" fill="#676767" fill-rule="nonzero" xlink:href="#path-1"></use>
                <g id="↳-🎨Color" mask="url(#mask-2)" fill="#6D7C8B">
                    <rect id="Box" x="0" y="0" width="24" height="24"></rect>
                </g>
            </g>
        </g>
    </g>
</svg>