<svg xmlns="http://www.w3.org/2000/svg" width="24" height="24" viewBox="0 0 24 24">
    <path fill="#6D7C8B" d="M19.787 12.826c.042-.345.073-.69.073-1.056 0-.366-.031-.71-.073-1.055l2.202-1.777c.198-.162.25-.453.125-.69l-2.087-3.726c-.125-.237-.407-.323-.636-.237l-2.598 1.077c-.543-.43-1.127-.786-1.764-1.056l-.396-2.854c-.031-.258-.25-.452-.511-.452H9.948c-.26 0-.48.194-.51.452L9.04 4.306c-.637.27-1.221.636-1.764 1.056L4.68 4.285c-.24-.097-.51 0-.636.237L1.956 8.248c-.135.237-.073.528.125.69l2.202 1.777c-.042.344-.073.7-.073 1.055s.031.71.073 1.056L2.08 14.603c-.198.161-.25.452-.125.689l2.087 3.726c.125.237.407.323.636.237l2.598-1.077c.543.431 1.127.786 1.764 1.056l.396 2.854c.031.258.25.452.511.452h4.174c.26 0 .48-.194.511-.452l.396-2.854c.637-.27 1.221-.636 1.764-1.056l2.598 1.077c.24.097.51 0 .636-.237l2.087-3.726c.125-.237.073-.528-.125-.69l-2.202-1.776zm-7.752 2.714c-2.014 0-3.652-1.691-3.652-3.77 0-2.079 1.638-3.77 3.652-3.77 2.014 0 3.652 1.691 3.652 3.77 0 2.079-1.638 3.77-3.652 3.77z"/>
</svg>
