<?xml version="1.0" encoding="UTF-8"?>
<svg width="24px" height="24px" viewBox="0 0 24 24" version="1.1" xmlns="http://www.w3.org/2000/svg" xmlns:xlink="http://www.w3.org/1999/xlink">
    <!-- Generator: Sketch 63.1 (92452) - https://sketch.com -->
    <title>Icon/close</title>
    <desc>Created with Sketch.</desc>
    <g id="Icon/close" stroke="none" stroke-width="1" fill="none" fill-rule="evenodd">
        <path d="M17.5892995,15.0125663 C17.5892995,15.2440478 17.4967069,15.4755293 17.3300403,15.642196 L16.070781,16.9014552 C15.9041143,17.0681219 15.6726329,17.1607145 15.4411514,17.1607145 C15.2096699,17.1607145 14.9781884,17.0681219 14.8115218,16.9014552 L12.0892995,14.179233 L9.36707731,16.9014552 C9.20041064,17.0681219 8.96892916,17.1607145 8.73744768,17.1607145 C8.5059662,17.1607145 8.27448471,17.0681219 8.10781805,16.9014552 L6.84855879,15.642196 C6.68189212,15.4755293 6.58929953,15.2440478 6.58929953,15.0125663 C6.58929953,14.7810848 6.68189212,14.5496034 6.84855879,14.3829367 L9.57078101,11.6607145 L6.84855879,8.93849226 C6.68189212,8.77182559 6.58929953,8.54034411 6.58929953,8.30886263 C6.58929953,8.07738114 6.68189212,7.84589966 6.84855879,7.679233 L8.10781805,6.41997374 C8.27448471,6.25330707 8.5059662,6.16071448 8.73744768,6.16071448 C8.96892916,6.16071448 9.20041064,6.25330707 9.36707731,6.41997374 L12.0892995,9.14219596 L14.8115218,6.41997374 C14.9781884,6.25330707 15.2096699,6.16071448 15.4411514,6.16071448 C15.6726329,6.16071448 15.9041143,6.25330707 16.070781,6.41997374 L17.3300403,7.679233 C17.4967069,7.84589966 17.5892995,8.07738114 17.5892995,8.30886263 C17.5892995,8.54034411 17.4967069,8.77182559 17.3300403,8.93849226 L14.607818,11.6607145 L17.3300403,14.3829367 C17.4967069,14.5496034 17.5892995,14.7810848 17.5892995,15.0125663 Z" id="ï€" fill="#6D7C8B" fill-rule="nonzero"></path>
    </g>
</svg>